Coordinates
version=1
nRows=21
nColumns=22
inDegrees=yes

Units are S.I. units (second, meters, Newtons, ...)
If the header above contains a line with 'inDegrees', this indicates whether rotational values are in degrees (yes) or radians (no).

endheader
time	pelvis_tilt	pelvis_list	pelvis_rotation	pelvis_tx	pelvis_ty	pelvis_tz	hip_flexion_r	hip_adduction_r	hip_rotation_r	knee_angle_r	ankle_angle_r	subtalar_angle_r	hip_flexion_l	hip_adduction_l	hip_rotation_l	knee_angle_l	ankle_angle_l	subtalar_angle_l	lumbar_extension	lumbar_bending	lumbar_rotation
      0.01000000	     -3.36800449	     -2.24995520	     -2.98729626	     -1.18695040	      0.96246858	     -0.06956498	      8.14882169	      1.57949550	     -3.40746872	    -13.28828057	      8.92358089	     -0.11714171	      5.40551879	     -4.73791629	     -9.19421999	    -12.02868556	      9.26545730	     -1.84157578	     -3.36892673	      0.65236046	     -1.65340984
      0.02000000	     -3.38846004	     -2.24139674	     -2.93744757	     -1.18706199	      0.96246736	     -0.06974578	      8.13225840	      1.56164319	     -3.42976309	    -13.21212103	      8.89060505	     -0.06696394	      5.42450690	     -4.71731192	     -9.16809367	    -11.99235707	      9.23692157	     -1.78485161	     -3.38489631	      0.65104062	     -1.69076828
      0.03000000	     -3.41929089	     -2.24096954	     -2.86785015	     -1.18716981	      0.96245299	     -0.06997280	      8.10598131	      1.54816798	     -3.48925341	    -13.10235761	      8.85324119	     -0.03164695	      5.44625010	     -4.70065897	     -9.11365172	    -11.93629980	      9.22080982	     -1.75483998	     -3.39028016	      0.66128126	     -1.73579306
      0.04000000	     -3.46488805	     -2.23625257	     -2.81791541	     -1.18727737	      0.96241646	     -0.07017608	      8.08434986	      1.53319980	     -3.53946475	    -12.97059307	      8.83951242	     -0.02062719	      5.47536882	     -4.68338629	     -9.10784096	    -11.87051625	      9.21325488	     -1.74684210	     -3.37835030	      0.66397901	     -1.73141221
      0.05000000	     -3.51057515	     -2.24635032	     -2.71175622	     -1.18739060	      0.96240624	     -0.07046178	      8.02932664	      1.52738075	     -3.62242523	    -12.78668401	      8.74640050	      0.01381082	      5.50274663	     -4.67188098	     -9.00281244	    -11.78301560	      9.15418224	     -1.71747988	     -3.36807808	      0.68668016	     -1.80908018
      0.06000000	     -3.56419023	     -2.25573877	     -2.62464103	     -1.18748036	      0.96237585	     -0.07071994	      7.97421522	      1.52212328	     -3.71071886	    -12.58819368	      8.69084712	      0.04050087	      5.52918994	     -4.66327703	     -8.94155554	    -11.68707179	      9.12478870	     -1.70231719	     -3.34340318	      0.70601275	     -1.83937330
      0.07000000	     -3.62507856	     -2.26492336	     -2.54282372	     -1.18756011	      0.96233190	     -0.07095339	      7.91986130	      1.51935861	     -3.79284636	    -12.37838224	      8.63680919	      0.06124479	      5.56114563	     -4.65613261	     -8.88310482	    -11.59098284	      9.09288936	     -1.68908822	     -3.30796947	      0.72020013	     -1.84802979
      0.08000000	     -3.68903935	     -2.27718642	     -2.45891864	     -1.18763336	      0.96227759	     -0.07117233	      7.86385874	      1.52081348	     -3.88009523	    -12.16101389	      8.58375495	      0.07605313	      5.59865615	     -4.65332414	     -8.81449435	    -11.49965479	      9.06297977	     -1.67833997	     -3.26612744	      0.73174310	     -1.84472156
      0.09000000	     -3.75703406	     -2.28818071	     -2.37743046	     -1.18768511	      0.96220891	     -0.07138730	      7.81141665	      1.52100374	     -3.96246418	    -11.94541934	      8.53726947	      0.08228068	      5.64120156	     -4.64950323	     -8.74612766	    -11.41258386	      9.03833399	     -1.67067298	     -3.21524990	      0.74361247	     -1.83518909
      0.10000000	     -3.82521379	     -2.29942098	     -2.29764773	     -1.18773014	      0.96212853	     -0.07158160	      7.76403964	      1.52354100	     -4.04580955	    -11.73831656	      8.49688603	      0.07997336	      5.68944712	     -4.64707676	     -8.67017166	    -11.33785492	      9.01865985	     -1.66583981	     -3.16210071	      0.74955030	     -1.81568812
      0.11000000	     -3.89020037	     -2.30872111	     -2.21953367	     -1.18777522	      0.96203961	     -0.07176749	      7.72482235	      1.52381812	     -4.12914694	    -11.55227502	      8.46564133	      0.06846809	      5.74403324	     -4.64394542	     -8.59041241	    -11.28075692	      9.00430589	     -1.66383366	     -3.11030987	      0.75087479	     -1.78258438
      0.12000000	     -3.94366947	     -2.30611039	     -2.17254732	     -1.18781233	      0.96194949	     -0.07190342	      7.69558975	      1.51496388	     -4.19310328	    -11.40189646	      8.47210758	      0.06233302	      5.78860085	     -4.63222472	     -8.56337024	    -11.23857002	      9.00393784	     -1.66368865	     -3.07023370	      0.73456987	     -1.70152642
      0.13000000	     -4.01603133	     -2.31442401	     -2.07677843	     -1.18786260	      0.96183393	     -0.07209540	      7.68553605	      1.51446594	     -4.28272831	    -11.25387635	      8.42711774	      0.02993281	      5.86874138	     -4.62635039	     -8.43493257	    -11.20626711	      8.98152041	     -1.66295983	     -3.00619430	      0.73191725	     -1.69375340
      0.14000000	     -4.05853093	     -2.30731703	     -2.03333729	     -1.18789378	      0.96174553	     -0.07220777	      7.66950017	      1.50276426	     -4.33297684	    -11.14686855	      8.43746889	      0.02204608	      5.90988723	     -4.61142363	     -8.41523991	    -11.17863041	      8.98533871	     -1.66554470	     -2.97491078	      0.70786302	     -1.61526164
      0.15000000	     -4.12896707	     -2.29309959	     -1.95555526	     -1.18794235	      0.96162027	     -0.07236819	      7.69386813	      1.48082914	     -4.40089894	    -11.05888045	      8.41606227	     -0.00920542	      5.98884376	     -4.58221687	     -8.31804750	    -11.15047558	      8.96762104	     -1.67289151	     -2.90887791	      0.67795735	     -1.59643509
      0.16000000	     -4.15743865	     -2.28687496	     -1.91349490	     -1.18800514	      0.96155212	     -0.07246174	      7.69600321	      1.47130303	     -4.44993881	    -11.00523986	      8.42544297	     -0.02008021	      6.03176309	     -4.56992674	     -8.29405806	    -11.15009137	      8.96533614	     -1.67848313	     -2.89877963	      0.65361912	     -1.51199660
      0.17000000	     -4.24232987	     -2.26755626	     -1.83623195	     -1.18812375	      0.96139629	     -0.07261284	      7.79395203	      1.44227263	     -4.54160564	    -11.01197493	      8.43659518	     -0.08824262	      6.15624357	     -4.53935285	     -8.20696189	    -11.16722522	      8.93604872	     -1.72056336	     -2.82458981	      0.62040900	     -1.48932696
      0.18000000	     -4.25785683	     -2.26011527	     -1.79489607	     -1.18817998	      0.96135979	     -0.07269103	      7.80245133	      1.43355810	     -4.57199809	    -10.99297970	      8.43044563	     -0.09478840	      6.18312819	     -4.52514063	     -8.19266520	    -11.16220051	      8.93641918	     -1.72560228	     -2.82767403	      0.59658809	     -1.41528353
      0.19000000	     -4.30297820	     -2.23328631	     -1.74601900	     -1.18829057	      0.96128308	     -0.07279067	      7.88453851	      1.39816477	     -4.64597238	    -11.04154457	      8.42367149	     -0.13379531	      6.24747461	     -4.48646263	     -8.14284490	    -11.15544442	      8.90638399	     -1.74478267	     -2.80501532	      0.55383057	     -1.36551875
      0.20000000	     -4.30983745	     -2.23185052	     -1.70536922	     -1.18835972	      0.96127011	     -0.07284288	      7.89786938	      1.39738092	     -4.66698393	    -11.04624537	      8.42547205	     -0.14252926	      6.27876315	     -4.48087351	     -8.12127272	    -11.17363848	      8.89526231	     -1.74738320	     -2.82283742	      0.53654023	     -1.29290209
      0.21000000	     -4.34043157	     -2.21935262	     -1.66437299	     -1.18847085	      0.96122168	     -0.07289934	      7.98001362	      1.37981078	     -4.73265845	    -11.12334139	      8.42530067	     -0.18343428	      6.33967979	     -4.46163662	     -8.07995371	    -11.19149878	      8.86689475	     -1.75947687	     -2.81993373	      0.51056872	     -1.23808190
